<svg id="visual" viewBox="0 0 960 540" width="960" height="540" xmlns="http://www.w3.org/2000/svg" xmlns:xlink="http://www.w3.org/1999/xlink" version="1.1"><path d="M0 120L14.5 121.8C29 123.7 58 127.3 87.2 131.8C116.3 136.3 145.7 141.7 174.8 136.2C204 130.7 233 114.3 262 126.8C291 139.3 320 180.7 349 192.3C378 204 407 186 436.2 172.5C465.3 159 494.7 150 523.8 151C553 152 582 163 611 157.7C640 152.3 669 130.7 698 118C727 105.3 756 101.7 785.2 99.8C814.3 98 843.7 98 872.8 95.3C902 92.7 931 87.3 945.5 84.7L960 82L960 0L945.5 0C931 0 902 0 872.8 0C843.7 0 814.3 0 785.2 0C756 0 727 0 698 0C669 0 640 0 611 0C582 0 553 0 523.8 0C494.7 0 465.3 0 436.2 0C407 0 378 0 349 0C320 0 291 0 262 0C233 0 204 0 174.8 0C145.7 0 116.3 0 87.2 0C58 0 29 0 14.5 0L0 0Z" fill="#004cbb"></path><path d="M0 206L14.5 208.7C29 211.3 58 216.7 87.2 217.7C116.3 218.7 145.7 215.3 174.8 200.2C204 185 233 158 262 171.5C291 185 320 239 349 256C378 273 407 253 436.2 238.5C465.3 224 494.7 215 523.8 220.5C553 226 582 246 611 238.8C640 231.7 669 197.3 698 176.5C727 155.7 756 148.3 785.2 150.2C814.3 152 843.7 163 872.8 159.5C902 156 931 138 945.5 129L960 120L960 80L945.5 82.7C931 85.3 902 90.7 872.8 93.3C843.7 96 814.3 96 785.2 97.8C756 99.7 727 103.3 698 116C669 128.7 640 150.3 611 155.7C582 161 553 150 523.8 149C494.7 148 465.3 157 436.2 170.5C407 184 378 202 349 190.3C320 178.7 291 137.3 262 124.8C233 112.3 204 128.7 174.8 134.2C145.7 139.7 116.3 134.3 87.2 129.8C58 125.3 29 121.7 14.5 119.8L0 118Z" fill="#0059dd"></path><path d="M0 303L14.5 305.8C29 308.7 58 314.3 87.2 310.8C116.3 307.3 145.7 294.7 174.8 277.5C204 260.3 233 238.7 262 248.5C291 258.3 320 299.7 349 319.5C378 339.3 407 337.7 436.2 324.2C465.3 310.7 494.7 285.3 523.8 289.8C553 294.3 582 328.7 611 319.7C640 310.7 669 258.3 698 240.3C727 222.3 756 238.7 785.2 241.3C814.3 244 843.7 233 872.8 230.3C902 227.7 931 233.3 945.5 236.2L960 239L960 118L945.5 127C931 136 902 154 872.8 157.5C843.7 161 814.3 150 785.2 148.2C756 146.3 727 153.7 698 174.5C669 195.3 640 229.7 611 236.8C582 244 553 224 523.8 218.5C494.7 213 465.3 222 436.2 236.5C407 251 378 271 349 254C320 237 291 183 262 169.5C233 156 204 183 174.8 198.2C145.7 213.3 116.3 216.7 87.2 215.7C58 214.7 29 209.3 14.5 206.7L0 204Z" fill="#0066ff"></path><path d="M0 465L14.5 460.5C29 456 58 447 87.2 436.3C116.3 425.7 145.7 413.3 174.8 405.3C204 397.3 233 393.7 262 402.7C291 411.7 320 433.3 349 447.7C378 462 407 469 436.2 468C465.3 467 494.7 458 523.8 457.2C553 456.3 582 463.7 611 452.8C640 442 669 413 698 413C727 413 756 442 785.2 451C814.3 460 843.7 449 872.8 450.8C902 452.7 931 467.3 945.5 474.7L960 482L960 237L945.5 234.2C931 231.3 902 225.7 872.8 228.3C843.7 231 814.3 242 785.2 239.3C756 236.7 727 220.3 698 238.3C669 256.3 640 308.7 611 317.7C582 326.7 553 292.3 523.8 287.8C494.7 283.3 465.3 308.7 436.2 322.2C407 335.7 378 337.3 349 317.5C320 297.7 291 256.3 262 246.5C233 236.7 204 258.3 174.8 275.5C145.7 292.7 116.3 305.3 87.2 308.8C58 312.3 29 306.7 14.5 303.8L0 301Z" fill="#3c80ff"></path><path d="M0 541L14.5 541C29 541 58 541 87.2 541C116.3 541 145.7 541 174.8 541C204 541 233 541 262 541C291 541 320 541 349 541C378 541 407 541 436.2 541C465.3 541 494.7 541 523.8 541C553 541 582 541 611 541C640 541 669 541 698 541C727 541 756 541 785.2 541C814.3 541 843.7 541 872.8 541C902 541 931 541 945.5 541L960 541L960 480L945.5 472.7C931 465.3 902 450.7 872.8 448.8C843.7 447 814.3 458 785.2 449C756 440 727 411 698 411C669 411 640 440 611 450.8C582 461.7 553 454.3 523.8 455.2C494.7 456 465.3 465 436.2 466C407 467 378 460 349 445.7C320 431.3 291 409.7 262 400.7C233 391.7 204 395.3 174.8 403.3C145.7 411.3 116.3 423.7 87.2 434.3C58 445 29 454 14.5 458.5L0 463Z" fill="#6198ff"></path></svg>